<svg width="35" height="35" viewBox="0 0 35 35" fill="none" xmlns="http://www.w3.org/2000/svg">
<path d="M17.4747 18.4274L14.1399 21.7622C14.0152 21.8869 13.8564 21.9493 13.6635 21.9493C13.4707 21.9493 13.3119 21.8869 13.1872 21.7622C13.0624 21.6374 13 21.4786 13 21.2858C13 21.0929 13.0624 20.9341 13.1872 20.8094L16.5219 17.4747L13.1872 14.1399C13.0624 14.0152 13 13.8564 13 13.6635C13 13.4707 13.0624 13.3119 13.1872 13.1872C13.3119 13.0624 13.4707 13 13.6635 13C13.8564 13 14.0152 13.0624 14.1399 13.1872L17.4747 16.5219L20.8094 13.1872C20.9341 13.0624 21.0929 13 21.2858 13C21.4786 13 21.6374 13.0624 21.7622 13.1872C21.8869 13.3119 21.9493 13.4707 21.9493 13.6635C21.9493 13.8564 21.8869 14.0152 21.7622 14.1399L18.4274 17.4747L21.7622 20.8094C21.8869 20.9341 21.9493 21.0929 21.9493 21.2858C21.9493 21.4786 21.8869 21.6374 21.7622 21.7622C21.6374 21.8869 21.4786 21.9493 21.2858 21.9493C21.0929 21.9493 20.9341 21.8869 20.8094 21.7622L17.4747 18.4274Z" fill="#C4C4C4"/>
</svg>
